<?xml version="1.0" encoding="UTF-8"?><svg xmlns="http://www.w3.org/2000/svg" viewBox="0 0 800.05 793.49"><defs><style>.cls-1{fill:#6fa5d9;}.cls-2{fill:#f3fafe;}.cls-3{fill:#282828;}.cls-4{fill:#6fa6da;}</style></defs><g id="Layer_2"><rect class="cls-2" y="527.8" width="800.05" height="265.69"/><rect class="cls-3" width="800.05" height="265.69"/><rect class="cls-1" y="265.46" width="800.05" height="265.69"/></g><g id="Layer_1"><path class="cls-3" d="m550.71,359.3c-1.16.36-3.02.09-4.27.09-6.67.09-11.48.18-17.79.71-3.56-.8-4.36-.98-6.23-4.98.44-1.69-.18-3.56.89-4.98.89-13.34.8-27.66-.09-41.01-.18-2.13,1.78-4.36,3.83-5.69,5.07-.89,6.23,2.49,6.32,6.58-.71,2.85,1.16,3.38.27,6.23-1.07,2.94-.18,7.03-.18,10.14,0,1.16,0,2.49-.27,3.83,1.16,6.32.09,12.72-.09,19.21l.27-.09c.53,0,1.16-.09,1.87,0,4.54-.09,13.34-.36,17.44,1.6,1.25,1.42,1.07,7.21-1.96,8.36Z"/><path class="cls-3" d="m577.04,354.05c-2.85-.44-4.45-2.05-4.45-3.56,0-1.07.36-1.69.36-4.18,0-.27-.09-.36-.09-.36-1.33,2.58-6.05,4.71-10.05,4.71-4.8,0-7.47-4.27-8.9-4.98-2.31-1.16-2.67-5.52-2.85-7.74.89-7.47,3.29-9.43,5.96-11.74l.8-.18c.44-.27,0-.62.53-.89,1.42-.62,3.47-.98,5.69-.98,2.58,0,5.43.44,7.83,1.25.18-2.58-.18-5.96-.53-8.45-1.42-1.96-2.31-2.4-3.74-2.4-3.91,0-6.4,5.6-9.43,5.6-3.83,0-5.87-2.76-5.87-5.34,0-1.16,2.22-3.91,3.29-4.54.18.09.53-.36.71-.36.36,0,.18-.18.8-.62,2.85-1.96,5.51-3.83,11.12-3.83,4.45,0,6.94,1.25,9.16,3.56,4.27,4.36,3.91,8.81,4.18,14.14.09,1.33-.27,3.65-.18,4.89l.62,14.32c.09,1.78.27,3.38.27,5.07,0,3.11-1.69,5.43-5.25,6.58Zm-10.58-22.51c-3.11,0-6.23,1.87-6.23,5.43,0,3.2,4.09,5.34,6.4,5.34,3.02,0,5.6-2.49,5.6-5.78,0-2.85-2.76-4.98-5.78-4.98Z"/><path class="cls-3" d="m609.95,359.21c-5.07,2.76-10.76,2.13-12.99,1.42-.27,1.87-1.42,3.83-3.83,3.91l-1.07,1.33c-4.54-2.4-4.72-3.83-5.52-8.18-.09-2.76-1.16-7.74.27-10.14.8-4.98-1.07-9.79-.18-14.94.18-3.02-.44-6.4-.8-9.34l.62-1.07c-.98-7.56.18-15.3-1.07-22.86-.09-4.45.09-9.34.8-14.94,4-4,8.63-1.87,9.87,2.76-.27,4.54-.71,19.21-.18,24.02.27,2.31.8,4.45.98,6.58,3.91-1.69,11.21,0,13.7,3.83,3.29,2.31,6.76,4.98,7.12,9.87,1.6,3.38.44,6.85,1.33,10.32-1.96,6.85-3.11,13.17-9.07,17.44Zm-4.63-29.27c-.98-.27-4.54-2.13-5.43-1.6-.98.53-1.51.18-2.76.71.27,4-.44,9.25.18,13.25.27,1.69.18,5.6-.18,7.29,1.78.36,3.65.8,5.87-.09,2.58-1.07,4.45-3.2,5.96-5.52.71-3.65.98-4.89.09-8.54-.53-2.58-1.42-3.83-3.74-5.52Z"/><path class="cls-3" d="m642.06,343.73c-2.58,1.96-5.6,3.2-9.16,2.76-3.47.27-6.67-.53-8.27-2.67-2.31-1.96-4-4.71-5.78-7.47-1.16-1.87-1.87-4.09-2.05-6.49-.18-2.49.09-5.07.89-7.47-.44-1.42,1.07-2.85,1.96-3.91,1.25-2.05,3.11-3.83,5.43-4.63,1.33-.44,2.76-.71,4.36-1.16.62-.09,1.16-.09,1.69-.09,3.83.09,7.12,2.05,10.59,3.56,5.16,3.2,6.32,8.1,6.4,13.25,0,2.49-.18,5.07-.36,7.56-1.69,1.33-3.11,5.96-5.69,6.76Zm-11.03-21.88c-1.25.53-3.74-.18-3.74,1.96-.53,1.42-.62,3.83-.8,5.16.44,2.67,1.51,4.89,3.56,6.85.36.18.71.27.89.53,2.31,1.42,6.05-.36,7.29-2.31,1.25-1.25.71-4.63.53-6.14-1.96-1.87-1.78-6.05-7.74-6.05Z"/><path class="cls-3" d="m196.3,510.68h-2.71l-4.17.63h-.63c-1.25.21-2.5.42-3.75.21l-2.71-.42-2.92.21-4.38-.63-2.71.63-3.33.21c-.83,0-1.46,0-2.29-.21l-1.04-.21-3.33.42c-.83.21-1.67.21-2.5,0l-1.04-.21-1.25-.83c-1.67-1.25-2.71-2.71-3.54-4.59l-2.08-2.92c-.63-1.04-1.04-1.88-1.25-2.71l-.42-1.25-2.5-3.75-.63-1.25c-.21-.42-.21-1.04-.42-1.46l-1.04-3.75-.83-2.08-1.88-3.54-1.04-2.08-.21-.21c-1.04-1.04-1.88-2.29-2.29-3.54l-1.04-2.5-2.5-5.42-1.25-2.71-4.17-2.08-6.04-.42-3.13,3.13v2.29l-.21,4.59c0,.83,0,1.67-.21,2.29l-.21,1.04.21,5,.21,3.13-.21,5,.21,2.08.21,4.79.63,2.71-.42,5.21s-1.67,2.92-3.33,4.38c-.83.63-2.29.63-3.54.63h-3.33l-2.29.21-3.13-.21-2.71-.42-5,.42-2.92.42-3.13.63c-1.04.21-2.08.21-3.13,0l-.42-.21-2.5-.21-2.29-.42s-.83-.42-1.67-1.04c-2.5-2.08-3.13-5.21-2.71-8.34v-.83l-.21-1.46c-.21-.83-.21-1.67-.21-2.5l.21-3.75-.21-1.88-.21-3.54c0-1.04,0-1.67.21-2.71l.21-1.46.21-5.21-.63-2.08-.21-2.71c0-1.46.42-2.92,1.04-4.59v-.21l-.63-4.59-.63-3.13-.21-3.33c0-1.25,0-1.88.21-3.13l.42-1.46v-5l.21-2.71.63-5.21-.63-5.63v-3.33l-.21-3.33c0-1.04,0-1.67.21-2.71l.21-1.25-.42-4.38-.42-2.29-.21-4.79c0-.62,0-1.67.21-2.29v-3.96c0-1.25.42-2.71.83-3.96l.42-.83.21-5-.42-2.5-.21-2.92c0-.83-.21-1.67,0-2.5l.21-1.67-.42-2.92c-.21-.63-.21-1.67-.21-2.29v-1.46l-.21-2.92c0-1.25,0-2.08.21-3.13l.21-.83-.21-4.59-.21-2.71s3.13-3.96,5.42-4.59c.21-.21.63-.21.83-.21h5.63c.42,0,1.25.21,1.67.21l3.75.63,1.88-.42h3.33c.83,0,2.08,0,2.92.21l1.46.42,2.71-.42h.83c.83,0,1.67-.21,2.5,0l1.25.42,5.21-.21,6.04-.42,2.5-.42h7.92l.63-.21c1.46-.42,3.33-.21,4.79.21l5,.63,2.71.63,6.88,1.25,3.54.21c.63,0,1.25.21,1.88.42l1.25.21,3.54,1.67c.42.21,1.25.63,1.67.83l1.04.63,4.79,1.88,2.71,1.46,4.17,1.88h.21c1.46.62,2.92,1.67,3.96,2.92l1.04,1.46,1.25,1.88,2.29,2.5c.63.83,1.25,1.67,1.67,2.71l.42.83,1.88,3.13c.63,1.25,1.04,2.08,1.25,3.13l1.46,3.54c.21.62.63,1.46.83,2.08l.21,1.67,1.04,4.59.63,2.29,1.04,4.79.21,1.04c0,1.04,0,1.46-.21,2.5l-.21,1.46v.21c.42,1.46.63,3.33.42,4.79l-.21,1.67c0,.63-.42,1.25-.63,1.88l-.42,1.25-.21,2.29-.63,2.5c-.21,1.25-.83,2.29-1.67,3.54l-.42.63-1.88,3.96c-.21.63-.63,1.04-1.04,1.67l-.83,1.04-2.5,3.13-.63,1.88-2.5,2.92c-.42.42-.83.63-1.25,1.04l-1.25,1.25-1.46.83-1.67,1.46c-1.46,1.25-2.92,1.88-4.59,2.29h-.21l-.63,3.96,1.25,2.92,2.08,4.38,1.67,2.71,2.08,4.38,1.25,1.88,1.88,4.38c1.25,1.04,2.08,2.71,2.71,4.59l.63,1.67.63,1.88,1.88,4.59,1.67,2.29,1.67,2.29c.63,1.04,1.04,1.67,1.46,2.71v.21l1.46,2.08,2.08,3.96c1.04,1.67,1.67,3.13,1.25,3.96s-1.67,1.04-3.13.63Zm-70.03-112.34l-1.04-.21-3.33,2.08-.42,2.71.21,1.88.21,4.59v7.09l-.21,3.13-.21,5.21.21,1.88,2.71,3.13,2.5-.21,4.17-.21h3.54l2.08-.21,2.5-.63,2.92-.21,5-.83,4.38-3.75,1.25-1.67.83-3.96-.21-3.13v-2.71l.21-2.92-1.67-4.79-3.54-3.33-2.29-1.46-5.42-1.67h-2.08l-2.5-.21-3.33.62h-3.96c-.83,0-1.67,0-2.5-.21Z"/><path class="cls-3" d="m276.75,405.85c.63.21,1.46.42,2.08.62l1.88.83,3.13,1.25c.63.21,1.25.42,1.88.83l.63.42,3.33,2.29,1.25.83c.63.42,1.25,1.04,1.88,1.46l2.29,2.08,1.25,1.04c.42.42.83.63,1.25,1.25l2.71,3.33,1.46,2.08,2.29,2.92c.42.62,1.04,1.46,1.46,2.08l2.08,4.79.83,2.29.63,2.92c.21,1.25.63,2.29.42,3.54l-.21.83.63,5v5.63c.42,1.67.63,3.33.42,5l-.63,2.5c-.21,2.08-1.25,3.96-2.5,5.42l-.21.42-2.71-.21-2.92.21c-1.04.21-2.5,0-3.54-.21l-.83-.21-3.75.42c-1.04.21-1.67.21-2.5,0l-.83-.21-4.59.42-1.88.21h-4.38c-.63,0-1.46-.21-2.08-.42l-1.04-.21-5.42-.21-2.92.42-5.63.21-5.63.21-2.92.83-1.04,1.67,2.29,1.88,3.96,3.96,2.08,1.04,4.38,1.25,2.08.21,2.71-.21h2.5l2.29-.21,2.5-.21,5-.21,5.63.21,5.42-1.25,2.92-1.04,2.92-.63c.83-.21,2.08-.42,2.92-.42l1.46.21c1.88,1.46,2.71,2.71,2.71,3.96v7.29l.21,4.79.21,5.21.21,2.08v4.38c0,.62-.21,1.04-.21,1.67l-.21,1.67v.21c-1.46,1.67-3.13,2.92-5,3.33l-4.59,2.08-2.08.63c-.21,0-.63.21-.83.21l-5.63,1.04-1.04.21c-.83.21-1.88.21-2.71.21l-6.25-.21-4.59.42h-1.88c-.63,0-1.46.21-2.08,0l-2.08-.42c-1.25.42-2.71.62-4.17.42l-1.04-.21-4.38-.63h-.42c-1.25,0-2.92-.21-4.17-.62l-2.29-.83-1.67-.21c-.83-.21-1.67-.21-2.5-.63l-2.92-1.46-2.5-.42-3.96-1.67-2.71-.21-2.08-.83c-1.46-.62-2.71-1.46-3.75-2.71l-.21-.21-4.59-3.13-3.33-2.71c-.63-.62-1.46-1.25-1.88-1.88l-.63-1.25-2.71-3.96-1.46-1.88-2.5-3.33c-.21-.42-.83-.83-1.04-1.46l-.63-1.46-.83-2.92c-.21-.62-.42-1.67-.42-2.29v-1.04l-1.25-5-.63-2.92-.63-3.96c0-.62-.21-1.04-.21-1.67v-1.88l.21-2.29.21-1.88.21-2.71.42-4.59.63-3.13.63-3.96c0-.63.21-1.25.42-2.08l.63-1.25,1.88-4.59,2.71-4.38.21-1.04c.42-1.04,1.04-1.88,1.67-2.71l2.08-2.5,1.88-2.08,3.13-3.33,1.88-1.67,3.13-2.71c.83-.83,1.67-1.25,2.5-1.67l1.04-.42,2.71-2.08c1.04-.83,2.29-1.04,3.75-1.46l3.54-.83.63-.42c1.04-.63,2.5-.63,3.54-.83l3.75-.42c1.25-.63,2.71-.83,4.38-.83h3.54l2.5-.83,2.5.21,2.71-.21,5.21.42,6.46,1.25Zm-7.29,34.81l-2.08-1.46-4.17-1.88-2.92-.21-2.08.62-4.79,2.29-2.29,5-.83,2.29,1.46,1.88h2.5l2.29.62,2.08-.21h2.92l4.38-.62,2.29-.63,2.5-2.5-1.25-5.21Z"/><path class="cls-3" d="m315.93,434.61c-.21-.63-.42-1.25-.42-1.67l-.42-3.96v-1.67l.21-1.67.42-5.84v-2.71l.21-5.21c0-1.25.63-2.71,2.08-4.79l.21-.42,2.29-.21,3.96-.21,2.29-.21,2.71-1.46-.21-2.92c0-.83,0-1.67.21-2.29l.42-2.08c-.21-1.25-.42-2.92,0-4.38l.63-2.92.21-1.04c.21-.83.63-1.67,1.04-2.5l1.67-2.71.21-2.29,2.08-4.79.63-1.25c.21-.62.63-1.25,1.04-1.67l2.5-3.13.42-.42c.83-.83,1.88-1.46,2.92-2.08l2.71-1.25,1.46-1.46,2.5-1.46c.83-.42,1.67-.83,2.71-1.25l.83-.42,3.54-1.67c.63-.42,1.67-.63,2.5-.83l1.46-.21,2.5-.63c1.46-.42,2.92-.42,4.38-.21h.21l1.88.21h.83c1.04-.21,2.29-.21,3.33,0h.83l2.5-.42h2.92l2.08-.21,4.79.42c1.04,0,1.88.21,2.71.83,1.88,1.25,2.71,3.13,2.71,4.59.21.21.21.42.21.63v3.96l.21,1.88-.42,4.79v7.09l.21,4.79c0,.83.21,1.67,0,2.29l-.42,1.46c-1.04,1.46-2.71,2.5-4.17,2.5h-.21l-3.13.42-.83.21c-.83.21-1.88.21-2.71.21l-1.25-.21-2.5.83-4.79,1.46-3.13,4.38-.63,1.88-.63,3.33,3.96,1.04,5.21-.42h1.25c.42,0,.83,0,1.46.21l4.17.62c1.88.21,3.75,1.04,5.63,2.5v7.09l-.21,1.46c0,.83-.21,1.67-.42,2.29v5.21l-.21,3.13.42,4.38s-1.46,2.5-2.92,3.96c-.83,1.04-2.08,1.25-3.54,1.67l-.83.21-3.54.21c-.83,0-1.46.21-2.29,0l-1.88-.21-1.88-.21-2.5,2.71-.21,1.88.21,2.08v5.21l-.21,5-.42,3.13-.21,4.79.21,1.88.83,4.79c.42,1.46.42,2.71.21,3.96l-.21,2.5-.21,2.71-.63,4.38v2.71l.42,5,.42,2.29.63,6.04v4.79c0,.42-.21,1.04-.21,1.46l-.21,1.25c-1.88,1.88-3.75,2.92-5.84,3.13h-.63l-3.75.21c-.42,0-1.25-.21-1.67-.21l-1.25-.21-3.33.42h-1.88l-1.25-.21-4.38.42-2.08-.21-4.38.21h-.42c-1.04.21-2.5.42-3.54.21l-3.54-.63s-2.29-1.46-3.75-2.71c-1.04-1.04-1.04-2.5-1.04-3.75v-2.92l-.21-2.71v-6.46l.21-.83.42-5-.63-2.29v-11.05l-.21-2.08.42-4.79v-6.67c0-1.04.21-1.88.42-2.92l.42-.83-.42-5.21-.21-5.21-.63-2.71-2.92-2.92h-1.25c-2.5-.21-4.59-.83-5.42-1.67-.63-.63-1.67-1.88-2.08-3.54Z"/><path class="cls-3" d="m465.37,480.26l.21.83c.21,1.04.21,2.29,0,3.33l-.21,2.71c0,.42-.21,1.04-.42,1.46l-.21,1.25v5.84c.21.83.21,1.88.21,2.92l-.21,1.04.42,4.79c0,.42-.21,1.25-.21,1.67l-.21,1.88-1.88,1.88c-1.04.83-2.08,1.67-3.33,2.29l-.83.21-4.79.83-1.25.21c-.83.21-1.67,0-2.29,0l-4.38-.21h-1.67c-.83,0-1.88.21-2.71,0l-.83-.21h-3.13l-.42.21c-1.46.42-2.92.42-4.38.21l-2.92-.62c-1.25,0-2.71-.21-4.17-.83l-2.5-1.04-1.88-1.04-4.59-2.29-2.08-1.04c-.42-.21-.83-.42-1.25-.83l-1.88-1.25c-.62-.42-1.25-1.04-1.67-1.46l-1.04-1.25-1.67-4.38-1.25-2.08-1.88-4.38-.62-2.29c0-.42-.21-.62-.21-.83l-.63-3.54c0-.62-.21-1.25-.21-1.67v-2.08l-.21-1.88-.21-1.04c-.21-1.04-.21-1.67-.21-2.71v-1.46l-.21-4.79-.21-2.5.21-4.79.63-2.92-.42-2.71c-.21-1.25,0-2.08.21-3.33l.21-.63-.42-4.59-.21-1.25c0-.83,0-1.67.21-2.5l.42-3.13v-2.92l.62-5.42-.83-1.88v-12.3l-.21-1.88v-5.63l.21-2.5.62-5v-2.92l.42-4.79v-1.67l-.21-4.79-.62-2.29v-5.21l-.21-2.29-.21-3.96v-.63c-.21-1.04-.42-2.5-.21-3.54l.42-3.54-.21-1.88s3.54-4.17,4.79-4.38c0-.21.21,0,.21,0l5.42.42,1.67-.42,4.79.21h2.5l5.42-.21,3.54-.42c1.25-.21,2.5.21,3.75.42h1.46c2.08,0,3.96.42,5.42,1.25,1.88,1.04,2.92,2.5,3.13,3.96.21.63.21,1.25.21,1.67l.21,4.38.21,2.08.21,1.88c.21,1.67,0,3.54-.63,5.21l-.21,4.38.42,2.08-.21,4.79-.21,2.92.21,5c.63,1.67.83,3.33.63,5v1.25l-.21,2.92-.42,4.59v7.5l.21,2.29.21,2.29c.21,1.46,0,2.71-.21,3.75l-.63,4.79.63,2.08-.63,5,.42,2.92.21,3.96.62,2.71.21,4.79-.21,2.5v4.79l.21,3.13.42,2.5.21,2.08.62,2.92,2.71,2.71,2.5.42,2.29-.21,2.71.62,3.54-.83c.42,0,1.04-.21,1.46-.21h1.67l1.04.63c.83.63,1.04,1.46,1.04,2.92Z"/><path class="cls-3" d="m540.82,405.85c.63.21,1.46.42,2.08.62l1.88.83,3.13,1.25c.63.21,1.25.42,1.88.83l.63.42,3.33,2.29,1.25.83c.62.42,1.25,1.04,1.88,1.46l2.29,2.08,1.25,1.04c.42.42.83.63,1.25,1.25l2.71,3.33,1.46,2.08,2.29,2.92c.42.62,1.04,1.46,1.46,2.08l2.08,4.79.83,2.29.63,2.92c.21,1.25.63,2.29.42,3.54l-.21.83.63,5v5.63c.42,1.67.62,3.33.42,5l-.62,2.5c-.21,2.08-1.25,3.96-2.5,5.42l-.21.42-2.71-.21-2.92.21c-1.04.21-2.5,0-3.54-.21l-.83-.21-3.75.42c-1.04.21-1.67.21-2.5,0l-.83-.21-4.59.42-1.88.21h-4.38c-.62,0-1.46-.21-2.08-.42l-1.04-.21-5.42-.21-2.92.42-5.63.21-5.63.21-2.92.83-1.04,1.67,2.29,1.88,3.96,3.96,2.08,1.04,4.38,1.25,2.08.21,2.71-.21h2.5l2.29-.21,2.5-.21,5-.21,5.63.21,5.42-1.25,2.92-1.04,2.92-.63c.83-.21,2.08-.42,2.92-.42l1.46.21c1.88,1.46,2.71,2.71,2.71,3.96v7.29l.21,4.79.21,5.21.21,2.08v4.38c0,.62-.21,1.04-.21,1.67l-.21,1.67v.21c-1.46,1.67-3.13,2.92-5,3.33l-4.59,2.08-2.08.63c-.21,0-.62.21-.83.21l-5.63,1.04-1.04.21c-.83.21-1.88.21-2.71.21l-6.25-.21-4.59.42h-1.88c-.63,0-1.46.21-2.08,0l-2.08-.42c-1.25.42-2.71.62-4.17.42l-1.04-.21-4.38-.63h-.42c-1.25,0-2.92-.21-4.17-.62l-2.29-.83-1.67-.21c-.83-.21-1.67-.21-2.5-.63l-2.92-1.46-2.5-.42-3.96-1.67-2.71-.21-2.08-.83c-1.46-.62-2.71-1.46-3.75-2.71l-.21-.21-4.59-3.13-3.33-2.71c-.63-.62-1.46-1.25-1.88-1.88l-.62-1.25-2.71-3.96-1.46-1.88-2.5-3.33c-.21-.42-.83-.83-1.04-1.46l-.63-1.46-.83-2.92c-.21-.62-.42-1.67-.42-2.29v-1.04l-1.25-5-.63-2.92-.62-3.96c0-.62-.21-1.04-.21-1.67v-1.88l.21-2.29.21-1.88.21-2.71.42-4.59.63-3.13.62-3.96c0-.63.21-1.25.42-2.08l.62-1.25,1.88-4.59,2.71-4.38.21-1.04c.42-1.04,1.04-1.88,1.67-2.71l2.08-2.5,1.88-2.08,3.13-3.33,1.88-1.67,3.13-2.71c.83-.83,1.67-1.25,2.5-1.67l1.04-.42,2.71-2.08c1.04-.83,2.29-1.04,3.75-1.46l3.54-.83.63-.42c1.04-.63,2.5-.63,3.54-.83l3.75-.42c1.25-.63,2.71-.83,4.38-.83h3.54l2.5-.83,2.5.21,2.71-.21,5.21.42,6.46,1.25Zm-7.3,34.81l-2.08-1.46-4.17-1.88-2.92-.21-2.08.62-4.79,2.29-2.29,5-.83,2.29,1.46,1.88h2.5l2.29.62,2.08-.21h2.92l4.38-.62,2.29-.63,2.5-2.5-1.25-5.21Z"/><path class="cls-3" d="m581.88,433.78l.63-5-.42-2.29-.21-2.5v-6.88l.42-4.38c0-.42.21-1.04.21-1.46l.42-1.88c1.04-1.88,2.29-2.71,3.96-2.92l4.38-.42,2.29-2.5.63-2.5.21-5,.42-2.5-.21-4.79v-.42c-.42-1.25-.63-2.29-.63-3.75v-3.13c.21-.63.42-1.46.83-2.29,1.46-2.71,3.96-3.75,5.84-3.75h.21l7.09-.62h1.88l3.54.42h.83c1.25-.21,2.5-.42,3.75-.21l3.13.63,3.13-.42,4.79.63c.62,0,1.25.21,1.88.42,2.71.83,3.75,2.92,4.38,4.79.21.63.21,1.46.21,2.08l.21,3.13.42,2.29-.21,3.54c0,.83,0,1.25-.21,1.88l-.21,1.88-.42,5.84.83,1.88,3.13,2.92h2.5l3.75-.42c1.25-.21,2.5,0,3.75.42l4.79.21.63.21c1.46.21,2.71.62,3.96,1.46l1.46.83-.21,2.29c0,.21-.21.42-.21.62v1.88l.21,4.17-.21,2.92.42,4.79.21,2.71v3.75c0,.83-.21,1.25-.42,2.08l-.42,1.88c-2.08,1.46-3.96,2.08-5.63,2.08l-4.79.63-2.71.83-2.92.21c-1.25.21-2.92,0-4.17-.42l-.63-.21-2.92,2.71-.21,2.5v5l.83,2.5v5.21l.21,2.71v4.79c.83,1.46,1.04,3.33,1.04,5l.83,2.29.42,2.29,3.75,2.29,2.29.63,3.13.63h.21c1.46,0,2.92.21,4.17.83l.42.21,5-1.46c1.88-.42,3.33,0,4.79,1.04v1.25c0,.63.21,1.04.21,1.67l.21,1.46v4.17c0,.83,0,1.25-.21,2.08l-.21,1.88.42,3.75v2.5l-.21,1.04.63,4.38c.21.83.42,2.08.21,2.92l-.21,1.04c-1.25,2.08-2.5,3.33-3.75,3.75-.62.42-1.04.21-1.67.42l-3.96.63-2.5.42-5.42,1.46-2.71.21-2.92.21c-1.25.21-2.71,0-3.75-.21h-2.71l-2.71-.21-2.08.21-4.79-.83h-1.46c-1.04,0-1.88-.21-2.92-.63l-2.5-1.04-2.08-.83-4.79-2.5-3.33-1.46c-1.25-.62-2.08-1.25-2.92-2.08l-.42-.62-3.13-3.75-.21-.42c-1.04-1.04-1.88-2.29-2.5-3.54l-1.04-2.29c-.21-.63-.42-1.25-.63-2.08l-.83-4.17-.63-2.71-.62-5.21-.21-2.5-.21-1.88v-2.08l.21-2.08-.21-5,.21-1.88.42-4.38v-3.33l.21-5.42-1.04-5.21-.63-4.38-2.5-1.88h-.83c-2.92-.21-5.21-.83-6.04-1.88s-1.46-2.29-1.67-3.75Z"/><path class="cls-3" d="m681.71,480.67l1.25-1.67c.42-.63.83-1.04,1.46-1.67l.83-.63,3.33-2.5c.42-.42,1.04-.62,1.67-1.04l1.04-.62,5-.21,2.71-.21h4.17c.63,0,1.25,0,1.88.21l3.54.83c.42.21,1.25.42,1.67.63l1.46.62,2.08,1.04c1.67.83,3.33,2.08,4.38,3.75l.21.42c.83,1.25,1.46,2.5,1.67,3.75v.21l1.04,4.59.21,1.46c0,.42.21,1.25.21,1.88l-.21,1.46.42,1.04c.21,1.04.21,1.88.21,2.71v.42l-1.04,4.59v.21c-.42,1.25-1.04,2.29-2.08,3.54l-1.88,2.08-1.04.83c-.42.42-.63.42-1.25.83l-2.71,1.67c-.63.42-1.04.63-1.46.83l-1.46.63-3.96,1.04h-.63c-.83.21-1.88.42-2.71.21l-1.04-.21h-2.5c-1.46.42-3.33.42-4.79,0l-1.67-.42-1.88-1.04c-.62-.42-1.04-.62-1.46-1.04l-2.5-1.88-1.67-1.46-1.67-1.88c-1.04-1.25-1.67-2.29-2.08-3.75l-.42-.62-.62-2.71c-.21-1.25-.21-2.08-.21-3.33v-.83l-.21-2.5.42-2.29v-.83c0-1.25,0-2.08.21-3.33l.21-.62c.21-1.46.83-2.71,1.88-4.17Z"/></g><g id="Layer_4"><path class="cls-2" d="m550.7,93.84c-1.16.36-3.02.09-4.27.09-6.67.09-11.48.18-17.79.71-3.56-.8-4.36-.98-6.23-4.98.44-1.69-.18-3.56.89-4.98.89-13.34.8-27.66-.09-41.01-.18-2.13,1.78-4.36,3.83-5.69,5.07-.89,6.23,2.49,6.32,6.58-.71,2.85,1.16,3.38.27,6.23-1.07,2.94-.18,7.03-.18,10.14,0,1.16,0,2.49-.27,3.83,1.16,6.32.09,12.72-.09,19.21l.27-.09c.53,0,1.16-.09,1.87,0,4.54-.09,13.34-.36,17.44,1.6,1.25,1.42,1.07,7.21-1.96,8.36Z"/><path class="cls-2" d="m577.04,88.59c-2.85-.44-4.45-2.05-4.45-3.56,0-1.07.36-1.69.36-4.18,0-.27-.09-.36-.09-.36-1.33,2.58-6.05,4.71-10.05,4.71-4.8,0-7.47-4.27-8.9-4.98-2.31-1.16-2.67-5.52-2.85-7.74.89-7.47,3.29-9.43,5.96-11.74l.8-.18c.44-.27,0-.62.53-.89,1.42-.62,3.47-.98,5.69-.98,2.58,0,5.43.44,7.83,1.25.18-2.58-.18-5.96-.53-8.45-1.42-1.96-2.31-2.4-3.74-2.4-3.91,0-6.4,5.6-9.43,5.6-3.83,0-5.87-2.76-5.87-5.34,0-1.16,2.22-3.91,3.29-4.54.18.09.53-.36.71-.36.36,0,.18-.18.8-.62,2.85-1.96,5.51-3.83,11.12-3.83,4.45,0,6.94,1.25,9.16,3.56,4.27,4.36,3.91,8.81,4.18,14.14.09,1.33-.27,3.65-.18,4.89l.62,14.32c.09,1.78.27,3.38.27,5.07,0,3.11-1.69,5.43-5.25,6.58Zm-10.58-22.51c-3.11,0-6.23,1.87-6.23,5.43,0,3.2,4.09,5.34,6.4,5.34,3.02,0,5.6-2.49,5.6-5.78,0-2.85-2.76-4.98-5.78-4.98Z"/><path class="cls-2" d="m609.95,93.75c-5.07,2.76-10.76,2.13-12.99,1.42-.27,1.87-1.42,3.83-3.83,3.91l-1.07,1.33c-4.54-2.4-4.72-3.83-5.52-8.18-.09-2.76-1.16-7.74.27-10.14.8-4.98-1.07-9.79-.18-14.94.18-3.02-.44-6.4-.8-9.34l.62-1.07c-.98-7.56.18-15.3-1.07-22.86-.09-4.45.09-9.34.8-14.94,4-4,8.63-1.87,9.87,2.76-.27,4.54-.71,19.21-.18,24.02.27,2.31.8,4.45.98,6.58,3.91-1.69,11.21,0,13.7,3.83,3.29,2.31,6.76,4.98,7.12,9.87,1.6,3.38.44,6.85,1.33,10.32-1.96,6.85-3.11,13.17-9.07,17.44Zm-4.63-29.27c-.98-.27-4.54-2.13-5.43-1.6-.98.53-1.51.18-2.76.71.27,4-.44,9.25.18,13.25.27,1.69.18,5.6-.18,7.29,1.78.36,3.65.8,5.87-.09,2.58-1.07,4.45-3.2,5.96-5.52.71-3.65.98-4.89.09-8.54-.53-2.58-1.42-3.83-3.74-5.52Z"/><path class="cls-2" d="m642.06,78.27c-2.58,1.96-5.6,3.2-9.16,2.76-3.47.27-6.67-.53-8.27-2.67-2.31-1.96-4-4.71-5.78-7.47-1.16-1.87-1.87-4.09-2.05-6.49-.18-2.49.09-5.07.89-7.47-.44-1.42,1.07-2.85,1.96-3.91,1.25-2.05,3.11-3.83,5.43-4.63,1.33-.44,2.76-.71,4.36-1.16.62-.09,1.16-.09,1.69-.09,3.83.09,7.12,2.05,10.59,3.56,5.16,3.2,6.32,8.1,6.4,13.25,0,2.49-.18,5.07-.36,7.56-1.69,1.33-3.11,5.96-5.69,6.76Zm-11.03-21.88c-1.25.53-3.74-.18-3.74,1.96-.53,1.42-.62,3.83-.8,5.16.44,2.67,1.51,4.89,3.56,6.85.36.18.71.27.89.53,2.31,1.42,6.05-.36,7.29-2.31,1.25-1.25.71-4.63.53-6.14-1.96-1.87-1.78-6.05-7.74-6.05Z"/><path class="cls-2" d="m196.3,245.22h-2.71l-4.17.63h-.63c-1.25.21-2.5.42-3.75.21l-2.71-.42-2.92.21-4.38-.63-2.71.63-3.33.21c-.83,0-1.46,0-2.29-.21l-1.04-.21-3.33.42c-.83.21-1.67.21-2.5,0l-1.04-.21-1.25-.83c-1.67-1.25-2.71-2.71-3.54-4.59l-2.08-2.92c-.63-1.04-1.04-1.88-1.25-2.71l-.42-1.25-2.5-3.75-.63-1.25c-.21-.42-.21-1.04-.42-1.46l-1.04-3.75-.83-2.08-1.88-3.54-1.04-2.08-.21-.21c-1.04-1.04-1.88-2.29-2.29-3.54l-1.04-2.5-2.5-5.42-1.25-2.71-4.17-2.08-6.04-.42-3.13,3.13v2.29l-.21,4.59c0,.83,0,1.67-.21,2.29l-.21,1.04.21,5,.21,3.13-.21,5,.21,2.08.21,4.79.63,2.71-.42,5.21s-1.67,2.92-3.33,4.38c-.83.63-2.29.63-3.54.63h-3.33l-2.29.21-3.13-.21-2.71-.42-5,.42-2.92.42-3.13.63c-1.04.21-2.08.21-3.13,0l-.42-.21-2.5-.21-2.29-.42s-.83-.42-1.67-1.04c-2.5-2.08-3.13-5.21-2.71-8.34v-.83l-.21-1.46c-.21-.83-.21-1.67-.21-2.5l.21-3.75-.21-1.88-.21-3.54c0-1.04,0-1.67.21-2.71l.21-1.46.21-5.21-.63-2.08-.21-2.71c0-1.46.42-2.92,1.04-4.59v-.21l-.63-4.59-.63-3.13-.21-3.33c0-1.25,0-1.88.21-3.13l.42-1.46v-5l.21-2.71.63-5.21-.63-5.63v-3.33l-.21-3.33c0-1.04,0-1.67.21-2.71l.21-1.25-.42-4.38-.42-2.29-.21-4.79c0-.63,0-1.67.21-2.29v-3.96c0-1.25.42-2.71.83-3.96l.42-.83.21-5-.42-2.5-.21-2.92c0-.83-.21-1.67,0-2.5l.21-1.67-.42-2.92c-.21-.63-.21-1.67-.21-2.29v-1.46l-.21-2.92c0-1.25,0-2.08.21-3.13l.21-.83-.21-4.59-.21-2.71s3.13-3.96,5.42-4.59c.21-.21.63-.21.83-.21h5.63c.42,0,1.25.21,1.67.21l3.75.63,1.88-.42h3.33c.83,0,2.08,0,2.92.21l1.46.42,2.71-.42h.83c.83,0,1.67-.21,2.5,0l1.25.42,5.21-.21,6.04-.42,2.5-.42h7.92l.63-.21c1.46-.42,3.33-.21,4.79.21l5,.63,2.71.63,6.88,1.25,3.54.21c.63,0,1.25.21,1.88.42l1.25.21,3.54,1.67c.42.21,1.25.63,1.67.83l1.04.63,4.79,1.88,2.71,1.46,4.17,1.88h.21c1.46.63,2.92,1.67,3.96,2.92l1.04,1.46,1.25,1.88,2.29,2.5c.63.83,1.25,1.67,1.67,2.71l.42.83,1.88,3.13c.63,1.25,1.04,2.08,1.25,3.13l1.46,3.54c.21.63.63,1.46.83,2.08l.21,1.67,1.04,4.59.63,2.29,1.04,4.79.21,1.04c0,1.04,0,1.46-.21,2.5l-.21,1.46v.21c.42,1.46.63,3.33.42,4.79l-.21,1.67c0,.63-.42,1.25-.63,1.88l-.42,1.25-.21,2.29-.63,2.5c-.21,1.25-.83,2.29-1.67,3.54l-.42.63-1.88,3.96c-.21.63-.63,1.04-1.04,1.67l-.83,1.04-2.5,3.13-.63,1.88-2.5,2.92c-.42.42-.83.63-1.25,1.04l-1.25,1.25-1.46.83-1.67,1.46c-1.46,1.25-2.92,1.88-4.59,2.29h-.21l-.63,3.96,1.25,2.92,2.08,4.38,1.67,2.71,2.08,4.38,1.25,1.88,1.88,4.38c1.25,1.04,2.08,2.71,2.71,4.59l.63,1.67.63,1.88,1.88,4.59,1.67,2.29,1.67,2.29c.63,1.04,1.04,1.67,1.46,2.71v.21l1.46,2.08,2.08,3.96c1.04,1.67,1.67,3.13,1.25,3.96-.42.83-1.67,1.04-3.13.63Zm-70.03-112.34l-1.04-.21-3.33,2.08-.42,2.71.21,1.88.21,4.59v7.09l-.21,3.13-.21,5.21.21,1.88,2.71,3.13,2.5-.21,4.17-.21h3.54l2.08-.21,2.5-.63,2.92-.21,5-.83,4.38-3.75,1.25-1.67.83-3.96-.21-3.13v-2.71l.21-2.92-1.67-4.79-3.54-3.33-2.29-1.46-5.42-1.67h-2.08l-2.5-.21-3.33.63h-3.96c-.83,0-1.67,0-2.5-.21Z"/><path class="cls-2" d="m276.75,140.39c.63.21,1.46.42,2.08.63l1.88.83,3.13,1.25c.63.21,1.25.42,1.88.83l.63.42,3.33,2.29,1.25.83c.63.42,1.25,1.04,1.88,1.46l2.29,2.08,1.25,1.04c.42.42.83.63,1.25,1.25l2.71,3.33,1.46,2.08,2.29,2.92c.42.63,1.04,1.46,1.46,2.08l2.08,4.79.83,2.29.63,2.92c.21,1.25.63,2.29.42,3.54l-.21.83.63,5v5.63c.42,1.67.63,3.33.42,5l-.63,2.5c-.21,2.08-1.25,3.96-2.5,5.42l-.21.42-2.71-.21-2.92.21c-1.04.21-2.5,0-3.54-.21l-.83-.21-3.75.42c-1.04.21-1.67.21-2.5,0l-.83-.21-4.59.42-1.88.21h-4.38c-.63,0-1.46-.21-2.08-.42l-1.04-.21-5.42-.21-2.92.42-5.63.21-5.63.21-2.92.83-1.04,1.67,2.29,1.88,3.96,3.96,2.08,1.04,4.38,1.25,2.08.21,2.71-.21h2.5l2.29-.21,2.5-.21,5-.21,5.63.21,5.42-1.25,2.92-1.04,2.92-.63c.83-.21,2.08-.42,2.92-.42l1.46.21c1.88,1.46,2.71,2.71,2.71,3.96v7.29l.21,4.79.21,5.21.21,2.08v4.38c0,.63-.21,1.04-.21,1.67l-.21,1.67v.21c-1.46,1.67-3.13,2.92-5,3.33l-4.59,2.08-2.08.63c-.21,0-.63.21-.83.21l-5.63,1.04-1.04.21c-.83.21-1.88.21-2.71.21l-6.25-.21-4.59.42h-1.88c-.63,0-1.46.21-2.08,0l-2.08-.42c-1.25.42-2.71.63-4.17.42l-1.04-.21-4.38-.63h-.42c-1.25,0-2.92-.21-4.17-.63l-2.29-.83-1.67-.21c-.83-.21-1.67-.21-2.5-.63l-2.92-1.46-2.5-.42-3.96-1.67-2.71-.21-2.08-.83c-1.46-.63-2.71-1.46-3.75-2.71l-.21-.21-4.59-3.13-3.33-2.71c-.63-.63-1.46-1.25-1.88-1.88l-.63-1.25-2.71-3.96-1.46-1.88-2.5-3.33c-.21-.42-.83-.83-1.04-1.46l-.63-1.46-.83-2.92c-.21-.63-.42-1.67-.42-2.29v-1.04l-1.25-5-.63-2.92-.63-3.96c0-.63-.21-1.04-.21-1.67v-1.88l.21-2.29.21-1.88.21-2.71.42-4.59.63-3.13.63-3.96c0-.63.21-1.25.42-2.08l.63-1.25,1.88-4.59,2.71-4.38.21-1.04c.42-1.04,1.04-1.88,1.67-2.71l2.08-2.5,1.88-2.08,3.13-3.33,1.88-1.67,3.13-2.71c.83-.83,1.67-1.25,2.5-1.67l1.04-.42,2.71-2.08c1.04-.83,2.29-1.04,3.75-1.46l3.54-.83.63-.42c1.04-.63,2.5-.63,3.54-.83l3.75-.42c1.25-.63,2.71-.83,4.38-.83h3.54l2.5-.83,2.5.21,2.71-.21,5.21.42,6.46,1.25Zm-7.29,34.81l-2.08-1.46-4.17-1.88-2.92-.21-2.08.63-4.79,2.29-2.29,5-.83,2.29,1.46,1.88h2.5l2.29.63,2.08-.21h2.92l4.38-.63,2.29-.63,2.5-2.5-1.25-5.21Z"/><path class="cls-2" d="m315.93,169.15c-.21-.63-.42-1.25-.42-1.67l-.42-3.96v-1.67l.21-1.67.42-5.84v-2.71l.21-5.21c0-1.25.63-2.71,2.08-4.79l.21-.42,2.29-.21,3.96-.21,2.29-.21,2.71-1.46-.21-2.92c0-.83,0-1.67.21-2.29l.42-2.08c-.21-1.25-.42-2.92,0-4.38l.63-2.92.21-1.04c.21-.83.63-1.67,1.04-2.5l1.67-2.71.21-2.29,2.08-4.79.63-1.25c.21-.63.63-1.25,1.04-1.67l2.5-3.13.42-.42c.83-.83,1.88-1.46,2.92-2.08l2.71-1.25,1.46-1.46,2.5-1.46c.83-.42,1.67-.83,2.71-1.25l.83-.42,3.54-1.67c.63-.42,1.67-.63,2.5-.83l1.46-.21,2.5-.63c1.46-.42,2.92-.42,4.38-.21h.21l1.88.21h.83c1.04-.21,2.29-.21,3.33,0h.83l2.5-.42h2.92l2.08-.21,4.79.42c1.04,0,1.88.21,2.71.83,1.88,1.25,2.71,3.13,2.71,4.59.21.21.21.42.21.63v3.96l.21,1.88-.42,4.79v7.09l.21,4.79c0,.83.21,1.67,0,2.29l-.42,1.46c-1.04,1.46-2.71,2.5-4.17,2.5h-.21l-3.13.42-.83.21c-.83.21-1.88.21-2.71.21l-1.25-.21-2.5.83-4.79,1.46-3.13,4.38-.63,1.88-.63,3.33,3.96,1.04,5.21-.42h1.25c.42,0,.83,0,1.46.21l4.17.63c1.88.21,3.75,1.04,5.63,2.5v7.09l-.21,1.46c0,.83-.21,1.67-.42,2.29v5.21l-.21,3.13.42,4.38s-1.46,2.5-2.92,3.96c-.83,1.04-2.08,1.25-3.54,1.67l-.83.21-3.54.21c-.83,0-1.46.21-2.29,0l-1.88-.21-1.88-.21-2.5,2.71-.21,1.88.21,2.08v5.21l-.21,5-.42,3.13-.21,4.79.21,1.88.83,4.79c.42,1.46.42,2.71.21,3.96l-.21,2.5-.21,2.71-.63,4.38v2.71l.42,5,.42,2.29.63,6.04v4.79c0,.42-.21,1.04-.21,1.46l-.21,1.25c-1.88,1.88-3.75,2.92-5.84,3.13h-.63l-3.75.21c-.42,0-1.25-.21-1.67-.21l-1.25-.21-3.33.42h-1.88l-1.25-.21-4.38.42-2.08-.21-4.38.21h-.42c-1.04.21-2.5.42-3.54.21l-3.54-.63s-2.29-1.46-3.75-2.71c-1.04-1.04-1.04-2.5-1.04-3.75v-2.92l-.21-2.71v-6.46l.21-.83.42-5-.63-2.29v-11.05l-.21-2.08.42-4.79v-6.67c0-1.04.21-1.88.42-2.92l.42-.83-.42-5.21-.21-5.21-.63-2.71-2.92-2.92h-1.25c-2.5-.21-4.59-.83-5.42-1.67-.63-.63-1.67-1.88-2.08-3.54Z"/><path class="cls-2" d="m465.37,214.79l.21.83c.21,1.04.21,2.29,0,3.33l-.21,2.71c0,.42-.21,1.04-.42,1.46l-.21,1.25v5.84c.21.83.21,1.88.21,2.92l-.21,1.04.42,4.79c0,.42-.21,1.25-.21,1.67l-.21,1.88-1.88,1.88c-1.04.83-2.08,1.67-3.33,2.29l-.83.21-4.79.83-1.25.21c-.83.21-1.67,0-2.29,0l-4.38-.21h-1.67c-.83,0-1.88.21-2.71,0l-.83-.21h-3.13l-.42.21c-1.46.42-2.92.42-4.38.21l-2.92-.63c-1.25,0-2.71-.21-4.17-.83l-2.5-1.04-1.88-1.04-4.59-2.29-2.08-1.04c-.42-.21-.83-.42-1.25-.83l-1.88-1.25c-.62-.42-1.25-1.04-1.67-1.46l-1.04-1.25-1.67-4.38-1.25-2.08-1.88-4.38-.62-2.29c0-.42-.21-.63-.21-.83l-.63-3.54c0-.63-.21-1.25-.21-1.67v-2.08l-.21-1.88-.21-1.04c-.21-1.04-.21-1.67-.21-2.71v-1.46l-.21-4.79-.21-2.5.21-4.79.63-2.92-.42-2.71c-.21-1.25,0-2.08.21-3.33l.21-.63-.42-4.59-.21-1.25c0-.83,0-1.67.21-2.5l.42-3.13v-2.92l.62-5.42-.83-1.88v-12.3l-.21-1.88v-5.63l.21-2.5.62-5v-2.92l.42-4.79v-1.67l-.21-4.79-.62-2.29v-5.21l-.21-2.29-.21-3.96v-.63c-.21-1.04-.42-2.5-.21-3.54l.42-3.54-.21-1.88s3.54-4.17,4.79-4.38c0-.21.21,0,.21,0l5.42.42,1.67-.42,4.79.21h2.5l5.42-.21,3.54-.42c1.25-.21,2.5.21,3.75.42h1.46c2.08,0,3.96.42,5.42,1.25,1.88,1.04,2.92,2.5,3.13,3.96.21.63.21,1.25.21,1.67l.21,4.38.21,2.08.21,1.88c.21,1.67,0,3.54-.63,5.21l-.21,4.38.42,2.08-.21,4.79-.21,2.92.21,5c.63,1.67.83,3.33.63,5v1.25l-.21,2.92-.42,4.59v7.5l.21,2.29.21,2.29c.21,1.46,0,2.71-.21,3.75l-.63,4.79.63,2.08-.63,5,.42,2.92.21,3.96.62,2.71.21,4.79-.21,2.5v4.79l.21,3.13.42,2.5.21,2.08.62,2.92,2.71,2.71,2.5.42,2.29-.21,2.71.63,3.54-.83c.42,0,1.04-.21,1.46-.21h1.67l1.04.63c.83.63,1.04,1.46,1.04,2.92Z"/><path class="cls-2" d="m540.82,140.39c.63.21,1.46.42,2.08.63l1.88.83,3.13,1.25c.63.21,1.25.42,1.88.83l.63.42,3.33,2.29,1.25.83c.62.42,1.25,1.04,1.88,1.46l2.29,2.08,1.25,1.04c.42.42.83.63,1.25,1.25l2.71,3.33,1.46,2.08,2.29,2.92c.42.63,1.04,1.46,1.46,2.08l2.08,4.79.83,2.29.63,2.92c.21,1.25.63,2.29.42,3.54l-.21.83.63,5v5.63c.42,1.67.62,3.33.42,5l-.62,2.5c-.21,2.08-1.25,3.96-2.5,5.42l-.21.42-2.71-.21-2.92.21c-1.04.21-2.5,0-3.54-.21l-.83-.21-3.75.42c-1.04.21-1.67.21-2.5,0l-.83-.21-4.59.42-1.88.21h-4.38c-.62,0-1.46-.21-2.08-.42l-1.04-.21-5.42-.21-2.92.42-5.63.21-5.63.21-2.92.83-1.04,1.67,2.29,1.88,3.96,3.96,2.08,1.04,4.38,1.25,2.08.21,2.71-.21h2.5l2.29-.21,2.5-.21,5-.21,5.63.21,5.42-1.25,2.92-1.04,2.92-.63c.83-.21,2.08-.42,2.92-.42l1.46.21c1.88,1.46,2.71,2.71,2.71,3.96v7.29l.21,4.79.21,5.21.21,2.08v4.38c0,.63-.21,1.04-.21,1.67l-.21,1.67v.21c-1.46,1.67-3.13,2.92-5,3.33l-4.59,2.08-2.08.63c-.21,0-.62.21-.83.21l-5.63,1.04-1.04.21c-.83.21-1.88.21-2.71.21l-6.25-.21-4.59.42h-1.88c-.63,0-1.46.21-2.08,0l-2.08-.42c-1.25.42-2.71.63-4.17.42l-1.04-.21-4.38-.63h-.42c-1.25,0-2.92-.21-4.17-.63l-2.29-.83-1.67-.21c-.83-.21-1.67-.21-2.5-.63l-2.92-1.46-2.5-.42-3.96-1.67-2.71-.21-2.08-.83c-1.46-.63-2.71-1.46-3.75-2.71l-.21-.21-4.59-3.13-3.33-2.71c-.63-.63-1.46-1.25-1.88-1.88l-.62-1.25-2.71-3.96-1.46-1.88-2.5-3.33c-.21-.42-.83-.83-1.04-1.46l-.63-1.46-.83-2.92c-.21-.63-.42-1.67-.42-2.29v-1.04l-1.25-5-.63-2.92-.62-3.96c0-.63-.21-1.04-.21-1.67v-1.88l.21-2.29.21-1.88.21-2.71.42-4.59.63-3.13.62-3.96c0-.63.21-1.25.42-2.08l.62-1.25,1.88-4.59,2.71-4.38.21-1.04c.42-1.04,1.04-1.88,1.67-2.71l2.08-2.5,1.88-2.08,3.13-3.33,1.88-1.67,3.13-2.71c.83-.83,1.67-1.25,2.5-1.67l1.04-.42,2.71-2.08c1.04-.83,2.29-1.04,3.75-1.46l3.54-.83.63-.42c1.04-.63,2.5-.63,3.54-.83l3.75-.42c1.25-.63,2.71-.83,4.38-.83h3.54l2.5-.83,2.5.21,2.71-.21,5.21.42,6.46,1.25Zm-7.3,34.81l-2.08-1.46-4.17-1.88-2.92-.21-2.08.63-4.79,2.29-2.29,5-.83,2.29,1.46,1.88h2.5l2.29.63,2.08-.21h2.92l4.38-.63,2.29-.63,2.5-2.5-1.25-5.21Z"/><path class="cls-2" d="m581.88,168.32l.63-5-.42-2.29-.21-2.5v-6.88l.42-4.38c0-.42.21-1.04.21-1.46l.42-1.88c1.04-1.88,2.29-2.71,3.96-2.92l4.38-.42,2.29-2.5.63-2.5.21-5,.42-2.5-.21-4.79v-.42c-.42-1.25-.63-2.29-.63-3.75v-3.13c.21-.63.42-1.46.83-2.29,1.46-2.71,3.96-3.75,5.84-3.75h.21l7.09-.63h1.88l3.54.42h.83c1.25-.21,2.5-.42,3.75-.21l3.13.63,3.13-.42,4.79.63c.62,0,1.25.21,1.88.42,2.71.83,3.75,2.92,4.38,4.79.21.63.21,1.46.21,2.08l.21,3.13.42,2.29-.21,3.54c0,.83,0,1.25-.21,1.88l-.21,1.88-.42,5.84.83,1.88,3.13,2.92h2.5l3.75-.42c1.25-.21,2.5,0,3.75.42l4.79.21.63.21c1.46.21,2.71.63,3.96,1.46l1.46.83-.21,2.29c0,.21-.21.42-.21.63v1.88l.21,4.17-.21,2.92.42,4.79.21,2.71v3.75c0,.83-.21,1.25-.42,2.08l-.42,1.88c-2.08,1.46-3.96,2.08-5.63,2.08l-4.79.63-2.71.83-2.92.21c-1.25.21-2.92,0-4.17-.42l-.63-.21-2.92,2.71-.21,2.5v5l.83,2.5v5.21l.21,2.71v4.79c.83,1.46,1.04,3.33,1.04,5l.83,2.29.42,2.29,3.75,2.29,2.29.63,3.13.63h.21c1.46,0,2.92.21,4.17.83l.42.21,5-1.46c1.88-.42,3.33,0,4.79,1.04v1.25c0,.63.21,1.04.21,1.67l.21,1.46v4.17c0,.83,0,1.25-.21,2.08l-.21,1.88.42,3.75v2.5l-.21,1.04.63,4.38c.21.83.42,2.08.21,2.92l-.21,1.04c-1.25,2.08-2.5,3.33-3.75,3.75-.62.42-1.04.21-1.67.42l-3.96.63-2.5.42-5.42,1.46-2.71.21-2.92.21c-1.25.21-2.71,0-3.75-.21h-2.71l-2.71-.21-2.08.21-4.79-.83h-1.46c-1.04,0-1.88-.21-2.92-.63l-2.5-1.04-2.08-.83-4.79-2.5-3.33-1.46c-1.25-.63-2.08-1.25-2.92-2.08l-.42-.63-3.13-3.75-.21-.42c-1.04-1.04-1.88-2.29-2.5-3.54l-1.04-2.29c-.21-.63-.42-1.25-.63-2.08l-.83-4.17-.63-2.71-.62-5.21-.21-2.5-.21-1.88v-2.08l.21-2.08-.21-5,.21-1.88.42-4.38v-3.33l.21-5.42-1.04-5.21-.63-4.38-2.5-1.88h-.83c-2.92-.21-5.21-.83-6.04-1.88s-1.46-2.29-1.67-3.75Z"/><path class="cls-2" d="m681.7,215.21l1.25-1.67c.42-.63.83-1.04,1.46-1.67l.83-.63,3.33-2.5c.42-.42,1.04-.63,1.67-1.04l1.04-.63,5-.21,2.71-.21h4.17c.63,0,1.25,0,1.88.21l3.54.83c.42.21,1.25.42,1.67.63l1.46.63,2.08,1.04c1.67.83,3.33,2.08,4.38,3.75l.21.42c.83,1.25,1.46,2.5,1.67,3.75v.21l1.04,4.59.21,1.46c0,.42.21,1.25.21,1.88l-.21,1.46.42,1.04c.21,1.04.21,1.88.21,2.71v.42l-1.04,4.59v.21c-.42,1.25-1.04,2.29-2.08,3.54l-1.88,2.08-1.04.83c-.42.42-.63.42-1.25.83l-2.71,1.67c-.63.42-1.04.63-1.46.83l-1.46.63-3.96,1.04h-.63c-.83.21-1.88.42-2.71.21l-1.04-.21h-2.5c-1.46.42-3.33.42-4.79,0l-1.67-.42-1.88-1.04c-.62-.42-1.04-.63-1.46-1.04l-2.5-1.88-1.67-1.46-1.67-1.88c-1.04-1.25-1.67-2.29-2.08-3.75l-.42-.63-.62-2.71c-.21-1.25-.21-2.08-.21-3.33v-.83l-.21-2.5.42-2.29v-.83c0-1.25,0-2.08.21-3.33l.21-.63c.21-1.46.83-2.71,1.88-4.17Z"/></g><g id="Layer_3"><path class="cls-4" d="m550.71,621.64c-1.16.36-3.02.09-4.27.09-6.67.09-11.48.18-17.79.71-3.56-.8-4.36-.98-6.23-4.98.44-1.69-.18-3.56.89-4.98.89-13.34.8-27.66-.09-41.01-.18-2.13,1.78-4.36,3.83-5.69,5.07-.89,6.23,2.49,6.32,6.58-.71,2.85,1.16,3.38.27,6.23-1.07,2.94-.18,7.03-.18,10.14,0,1.16,0,2.49-.27,3.83,1.16,6.32.09,12.72-.09,19.21l.27-.09c.53,0,1.16-.09,1.87,0,4.54-.09,13.34-.36,17.44,1.6,1.25,1.42,1.07,7.21-1.96,8.36Z"/><path class="cls-4" d="m577.04,616.39c-2.85-.44-4.45-2.05-4.45-3.56,0-1.07.36-1.69.36-4.18,0-.27-.09-.36-.09-.36-1.33,2.58-6.05,4.72-10.05,4.72-4.8,0-7.47-4.27-8.9-4.98-2.31-1.16-2.67-5.52-2.85-7.74.89-7.47,3.29-9.43,5.96-11.74l.8-.18c.44-.27,0-.62.53-.89,1.42-.62,3.47-.98,5.69-.98,2.58,0,5.43.44,7.83,1.25.18-2.58-.18-5.96-.53-8.45-1.42-1.96-2.31-2.4-3.74-2.4-3.91,0-6.4,5.6-9.43,5.6-3.83,0-5.87-2.76-5.87-5.34,0-1.16,2.22-3.91,3.29-4.54.18.09.53-.35.71-.35.36,0,.18-.18.8-.62,2.85-1.96,5.51-3.83,11.12-3.83,4.45,0,6.94,1.25,9.16,3.56,4.27,4.36,3.91,8.81,4.18,14.14.09,1.33-.27,3.65-.18,4.89l.62,14.32c.09,1.78.27,3.38.27,5.07,0,3.11-1.69,5.43-5.25,6.58Zm-10.58-22.51c-3.11,0-6.23,1.87-6.23,5.43,0,3.2,4.09,5.34,6.4,5.34,3.02,0,5.6-2.49,5.6-5.78,0-2.85-2.76-4.98-5.78-4.98Z"/><path class="cls-4" d="m609.95,621.55c-5.07,2.76-10.76,2.14-12.99,1.42-.27,1.87-1.42,3.83-3.83,3.91l-1.07,1.33c-4.54-2.4-4.72-3.83-5.52-8.18-.09-2.76-1.16-7.74.27-10.14.8-4.98-1.07-9.79-.18-14.95.18-3.02-.44-6.4-.8-9.34l.62-1.07c-.98-7.56.18-15.3-1.07-22.86-.09-4.45.09-9.34.8-14.95,4-4,8.63-1.87,9.87,2.76-.27,4.54-.71,19.21-.18,24.02.27,2.31.8,4.45.98,6.58,3.91-1.69,11.21,0,13.7,3.83,3.29,2.31,6.76,4.98,7.12,9.87,1.6,3.38.44,6.85,1.33,10.32-1.96,6.85-3.11,13.17-9.07,17.44Zm-4.63-29.27c-.98-.27-4.54-2.13-5.43-1.6-.98.53-1.51.18-2.76.71.27,4-.44,9.25.18,13.25.27,1.69.18,5.6-.18,7.29,1.78.36,3.65.8,5.87-.09,2.58-1.07,4.45-3.2,5.96-5.52.71-3.65.98-4.89.09-8.54-.53-2.58-1.42-3.83-3.74-5.52Z"/><path class="cls-4" d="m642.06,606.07c-2.58,1.96-5.6,3.2-9.16,2.76-3.47.27-6.67-.53-8.27-2.67-2.31-1.96-4-4.72-5.78-7.47-1.16-1.87-1.87-4.09-2.05-6.49-.18-2.49.09-5.07.89-7.47-.44-1.42,1.07-2.85,1.96-3.91,1.25-2.05,3.11-3.83,5.43-4.63,1.33-.44,2.76-.71,4.36-1.16.62-.09,1.16-.09,1.69-.09,3.83.09,7.12,2.05,10.59,3.56,5.16,3.2,6.32,8.09,6.4,13.25,0,2.49-.18,5.07-.36,7.56-1.69,1.33-3.11,5.96-5.69,6.76Zm-11.03-21.88c-1.25.53-3.74-.18-3.74,1.96-.53,1.42-.62,3.83-.8,5.16.44,2.67,1.51,4.89,3.56,6.85.36.18.71.27.89.53,2.31,1.42,6.05-.36,7.29-2.31,1.25-1.25.71-4.63.53-6.14-1.96-1.87-1.78-6.05-7.74-6.05Z"/><path class="cls-4" d="m196.3,773.02h-2.71l-4.17.62h-.63c-1.25.21-2.5.42-3.75.21l-2.71-.42-2.92.21-4.38-.62-2.71.62-3.33.21c-.83,0-1.46,0-2.29-.21l-1.04-.21-3.33.42c-.83.21-1.67.21-2.5,0l-1.04-.21-1.25-.83c-1.67-1.25-2.71-2.71-3.54-4.59l-2.08-2.92c-.63-1.04-1.04-1.88-1.25-2.71l-.42-1.25-2.5-3.75-.63-1.25c-.21-.42-.21-1.04-.42-1.46l-1.04-3.75-.83-2.08-1.88-3.54-1.04-2.08-.21-.21c-1.04-1.04-1.88-2.29-2.29-3.54l-1.04-2.5-2.5-5.42-1.25-2.71-4.17-2.08-6.04-.42-3.13,3.13v2.29l-.21,4.59c0,.83,0,1.67-.21,2.29l-.21,1.04.21,5,.21,3.13-.21,5,.21,2.08.21,4.79.63,2.71-.42,5.21s-1.67,2.92-3.33,4.38c-.83.62-2.29.62-3.54.62h-3.33l-2.29.21-3.13-.21-2.71-.42-5,.42-2.92.42-3.13.62c-1.04.21-2.08.21-3.13,0l-.42-.21-2.5-.21-2.29-.42s-.83-.42-1.67-1.04c-2.5-2.08-3.13-5.21-2.71-8.34v-.83l-.21-1.46c-.21-.83-.21-1.67-.21-2.5l.21-3.75-.21-1.88-.21-3.54c0-1.04,0-1.67.21-2.71l.21-1.46.21-5.21-.63-2.08-.21-2.71c0-1.46.42-2.92,1.04-4.59v-.21l-.63-4.59-.63-3.13-.21-3.33c0-1.25,0-1.88.21-3.13l.42-1.46v-5l.21-2.71.63-5.21-.63-5.63v-3.33l-.21-3.33c0-1.04,0-1.67.21-2.71l.21-1.25-.42-4.38-.42-2.29-.21-4.79c0-.63,0-1.67.21-2.29v-3.96c0-1.25.42-2.71.83-3.96l.42-.83.21-5-.42-2.5-.21-2.92c0-.83-.21-1.67,0-2.5l.21-1.67-.42-2.92c-.21-.62-.21-1.67-.21-2.29v-1.46l-.21-2.92c0-1.25,0-2.08.21-3.13l.21-.83-.21-4.59-.21-2.71s3.13-3.96,5.42-4.59c.21-.21.63-.21.83-.21h5.63c.42,0,1.25.21,1.67.21l3.75.63,1.88-.42h3.33c.83,0,2.08,0,2.92.21l1.46.42,2.71-.42h.83c.83,0,1.67-.21,2.5,0l1.25.42,5.21-.21,6.04-.42,2.5-.42h7.92l.63-.21c1.46-.42,3.33-.21,4.79.21l5,.62,2.71.63,6.88,1.25,3.54.21c.63,0,1.25.21,1.88.42l1.25.21,3.54,1.67c.42.21,1.25.63,1.67.83l1.04.63,4.79,1.88,2.71,1.46,4.17,1.88h.21c1.46.63,2.92,1.67,3.96,2.92l1.04,1.46,1.25,1.88,2.29,2.5c.63.83,1.25,1.67,1.67,2.71l.42.83,1.88,3.13c.63,1.25,1.04,2.08,1.25,3.13l1.46,3.54c.21.63.63,1.46.83,2.08l.21,1.67,1.04,4.59.63,2.29,1.04,4.79.21,1.04c0,1.04,0,1.46-.21,2.5l-.21,1.46v.21c.42,1.46.63,3.33.42,4.79l-.21,1.67c0,.62-.42,1.25-.63,1.88l-.42,1.25-.21,2.29-.63,2.5c-.21,1.25-.83,2.29-1.67,3.54l-.42.62-1.88,3.96c-.21.63-.63,1.04-1.04,1.67l-.83,1.04-2.5,3.13-.63,1.88-2.5,2.92c-.42.42-.83.62-1.25,1.04l-1.25,1.25-1.46.83-1.67,1.46c-1.46,1.25-2.92,1.88-4.59,2.29h-.21l-.63,3.96,1.25,2.92,2.08,4.38,1.67,2.71,2.08,4.38,1.25,1.88,1.88,4.38c1.25,1.04,2.08,2.71,2.71,4.59l.63,1.67.63,1.88,1.88,4.59,1.67,2.29,1.67,2.29c.63,1.04,1.04,1.67,1.46,2.71v.21l1.46,2.08,2.08,3.96c1.04,1.67,1.67,3.13,1.25,3.96-.42.83-1.67,1.04-3.13.63Zm-70.03-112.34l-1.04-.21-3.33,2.08-.42,2.71.21,1.88.21,4.59v7.09l-.21,3.13-.21,5.21.21,1.88,2.71,3.13,2.5-.21,4.17-.21h3.54l2.08-.21,2.5-.62,2.92-.21,5-.83,4.38-3.75,1.25-1.67.83-3.96-.21-3.13v-2.71l.21-2.92-1.67-4.79-3.54-3.33-2.29-1.46-5.42-1.67h-2.08l-2.5-.21-3.33.63h-3.96c-.83,0-1.67,0-2.5-.21Z"/><path class="cls-4" d="m276.75,668.18c.63.21,1.46.42,2.08.63l1.88.83,3.13,1.25c.63.21,1.25.42,1.88.83l.63.42,3.33,2.29,1.25.83c.63.42,1.25,1.04,1.88,1.46l2.29,2.08,1.25,1.04c.42.42.83.62,1.25,1.25l2.71,3.33,1.46,2.08,2.29,2.92c.42.63,1.04,1.46,1.46,2.08l2.08,4.79.83,2.29.63,2.92c.21,1.25.63,2.29.42,3.54l-.21.83.63,5v5.63c.42,1.67.63,3.33.42,5l-.63,2.5c-.21,2.08-1.25,3.96-2.5,5.42l-.21.42-2.71-.21-2.92.21c-1.04.21-2.5,0-3.54-.21l-.83-.21-3.75.42c-1.04.21-1.67.21-2.5,0l-.83-.21-4.59.42-1.88.21h-4.38c-.63,0-1.46-.21-2.08-.42l-1.04-.21-5.42-.21-2.92.42-5.63.21-5.63.21-2.92.83-1.04,1.67,2.29,1.88,3.96,3.96,2.08,1.04,4.38,1.25,2.08.21,2.71-.21h2.5l2.29-.21,2.5-.21,5-.21,5.63.21,5.42-1.25,2.92-1.04,2.92-.62c.83-.21,2.08-.42,2.92-.42l1.46.21c1.88,1.46,2.71,2.71,2.71,3.96v7.3l.21,4.79.21,5.21.21,2.08v4.38c0,.63-.21,1.04-.21,1.67l-.21,1.67v.21c-1.46,1.67-3.13,2.92-5,3.33l-4.59,2.08-2.08.62c-.21,0-.63.21-.83.21l-5.63,1.04-1.04.21c-.83.21-1.88.21-2.71.21l-6.25-.21-4.59.42h-1.88c-.63,0-1.46.21-2.08,0l-2.08-.42c-1.25.42-2.71.63-4.17.42l-1.04-.21-4.38-.63h-.42c-1.25,0-2.92-.21-4.17-.63l-2.29-.83-1.67-.21c-.83-.21-1.67-.21-2.5-.63l-2.92-1.46-2.5-.42-3.96-1.67-2.71-.21-2.08-.83c-1.46-.63-2.71-1.46-3.75-2.71l-.21-.21-4.59-3.13-3.33-2.71c-.63-.63-1.46-1.25-1.88-1.88l-.63-1.25-2.71-3.96-1.46-1.88-2.5-3.33c-.21-.42-.83-.83-1.04-1.46l-.63-1.46-.83-2.92c-.21-.63-.42-1.67-.42-2.29v-1.04l-1.25-5-.63-2.92-.63-3.96c0-.63-.21-1.04-.21-1.67v-1.88l.21-2.29.21-1.88.21-2.71.42-4.59.63-3.13.63-3.96c0-.62.21-1.25.42-2.08l.63-1.25,1.88-4.59,2.71-4.38.21-1.04c.42-1.04,1.04-1.88,1.67-2.71l2.08-2.5,1.88-2.08,3.13-3.33,1.88-1.67,3.13-2.71c.83-.83,1.67-1.25,2.5-1.67l1.04-.42,2.71-2.08c1.04-.83,2.29-1.04,3.75-1.46l3.54-.83.63-.42c1.04-.62,2.5-.62,3.54-.83l3.75-.42c1.25-.62,2.71-.83,4.38-.83h3.54l2.5-.83,2.5.21,2.71-.21,5.21.42,6.46,1.25Zm-7.29,34.81l-2.08-1.46-4.17-1.88-2.92-.21-2.08.63-4.79,2.29-2.29,5-.83,2.29,1.46,1.88h2.5l2.29.63,2.08-.21h2.92l4.38-.63,2.29-.62,2.5-2.5-1.25-5.21Z"/><path class="cls-4" d="m315.93,696.95c-.21-.62-.42-1.25-.42-1.67l-.42-3.96v-1.67l.21-1.67.42-5.84v-2.71l.21-5.21c0-1.25.63-2.71,2.08-4.79l.21-.42,2.29-.21,3.96-.21,2.29-.21,2.71-1.46-.21-2.92c0-.83,0-1.67.21-2.29l.42-2.08c-.21-1.25-.42-2.92,0-4.38l.63-2.92.21-1.04c.21-.83.63-1.67,1.04-2.5l1.67-2.71.21-2.29,2.08-4.79.63-1.25c.21-.63.63-1.25,1.04-1.67l2.5-3.13.42-.42c.83-.83,1.88-1.46,2.92-2.08l2.71-1.25,1.46-1.46,2.5-1.46c.83-.42,1.67-.83,2.71-1.25l.83-.42,3.54-1.67c.63-.42,1.67-.63,2.5-.83l1.46-.21,2.5-.63c1.46-.42,2.92-.42,4.38-.21h.21l1.88.21h.83c1.04-.21,2.29-.21,3.33,0h.83l2.5-.42h2.92l2.08-.21,4.79.42c1.04,0,1.88.21,2.71.83,1.88,1.25,2.71,3.13,2.71,4.59.21.21.21.42.21.62v3.96l.21,1.88-.42,4.79v7.09l.21,4.79c0,.83.21,1.67,0,2.29l-.42,1.46c-1.04,1.46-2.71,2.5-4.17,2.5h-.21l-3.13.42-.83.21c-.83.21-1.88.21-2.71.21l-1.25-.21-2.5.83-4.79,1.46-3.13,4.38-.62,1.88-.63,3.33,3.96,1.04,5.21-.42h1.25c.42,0,.83,0,1.46.21l4.17.63c1.88.21,3.75,1.04,5.63,2.5v7.09l-.21,1.46c0,.83-.21,1.67-.42,2.29v5.21l-.21,3.13.42,4.38s-1.46,2.5-2.92,3.96c-.83,1.04-2.08,1.25-3.54,1.67l-.83.21-3.54.21c-.83,0-1.46.21-2.29,0l-1.88-.21-1.88-.21-2.5,2.71-.21,1.88.21,2.08v5.21l-.21,5-.42,3.13-.21,4.79.21,1.88.83,4.79c.42,1.46.42,2.71.21,3.96l-.21,2.5-.21,2.71-.63,4.38v2.71l.42,5,.42,2.29.62,6.04v4.79c0,.42-.21,1.04-.21,1.46l-.21,1.25c-1.88,1.88-3.75,2.92-5.84,3.13h-.63l-3.75.21c-.42,0-1.25-.21-1.67-.21l-1.25-.21-3.33.42h-1.88l-1.25-.21-4.38.42-2.08-.21-4.38.21h-.42c-1.04.21-2.5.42-3.54.21l-3.54-.62s-2.29-1.46-3.75-2.71c-1.04-1.04-1.04-2.5-1.04-3.75v-2.92l-.21-2.71v-6.46l.21-.83.42-5-.63-2.29v-11.05l-.21-2.08.42-4.79v-6.67c0-1.04.21-1.88.42-2.92l.42-.83-.42-5.21-.21-5.21-.63-2.71-2.92-2.92h-1.25c-2.5-.21-4.59-.83-5.42-1.67-.63-.62-1.67-1.88-2.08-3.54Z"/><path class="cls-4" d="m465.37,742.59l.21.83c.21,1.04.21,2.29,0,3.33l-.21,2.71c0,.42-.21,1.04-.42,1.46l-.21,1.25v5.84c.21.83.21,1.88.21,2.92l-.21,1.04.42,4.79c0,.42-.21,1.25-.21,1.67l-.21,1.88-1.88,1.88c-1.04.83-2.08,1.67-3.33,2.29l-.83.21-4.79.83-1.25.21c-.83.21-1.67,0-2.29,0l-4.38-.21h-1.67c-.83,0-1.88.21-2.71,0l-.83-.21h-3.13l-.42.21c-1.46.42-2.92.42-4.38.21l-2.92-.63c-1.25,0-2.71-.21-4.17-.83l-2.5-1.04-1.88-1.04-4.59-2.29-2.08-1.04c-.42-.21-.83-.42-1.25-.83l-1.88-1.25c-.62-.42-1.25-1.04-1.67-1.46l-1.04-1.25-1.67-4.38-1.25-2.08-1.88-4.38-.62-2.29c0-.42-.21-.63-.21-.83l-.63-3.54c0-.63-.21-1.25-.21-1.67v-2.08l-.21-1.88-.21-1.04c-.21-1.04-.21-1.67-.21-2.71v-1.46l-.21-4.79-.21-2.5.21-4.79.63-2.92-.42-2.71c-.21-1.25,0-2.08.21-3.33l.21-.62-.42-4.59-.21-1.25c0-.83,0-1.67.21-2.5l.42-3.13v-2.92l.62-5.42-.83-1.88v-12.3l-.21-1.88v-5.63l.21-2.5.62-5v-2.92l.42-4.79v-1.67l-.21-4.79-.62-2.29v-5.21l-.21-2.29-.21-3.96v-.62c-.21-1.04-.42-2.5-.21-3.54l.42-3.54-.21-1.88s3.54-4.17,4.79-4.38c0-.21.21,0,.21,0l5.42.42,1.67-.42,4.79.21h2.5l5.42-.21,3.54-.42c1.25-.21,2.5.21,3.75.42h1.46c2.08,0,3.96.42,5.42,1.25,1.88,1.04,2.92,2.5,3.13,3.96.21.63.21,1.25.21,1.67l.21,4.38.21,2.08.21,1.88c.21,1.67,0,3.54-.63,5.21l-.21,4.38.42,2.08-.21,4.79-.21,2.92.21,5c.63,1.67.83,3.33.63,5v1.25l-.21,2.92-.42,4.59v7.5l.21,2.29.21,2.29c.21,1.46,0,2.71-.21,3.75l-.63,4.79.63,2.08-.63,5,.42,2.92.21,3.96.62,2.71.21,4.79-.21,2.5v4.79l.21,3.13.42,2.5.21,2.08.62,2.92,2.71,2.71,2.5.42,2.29-.21,2.71.63,3.54-.83c.42,0,1.04-.21,1.46-.21h1.67l1.04.63c.83.62,1.04,1.46,1.04,2.92Z"/><path class="cls-4" d="m540.82,668.18c.63.21,1.46.42,2.08.63l1.88.83,3.13,1.25c.63.21,1.25.42,1.88.83l.63.42,3.33,2.29,1.25.83c.62.42,1.25,1.04,1.88,1.46l2.29,2.08,1.25,1.04c.42.42.83.62,1.25,1.25l2.71,3.33,1.46,2.08,2.29,2.92c.42.63,1.04,1.46,1.46,2.08l2.08,4.79.83,2.29.63,2.92c.21,1.25.63,2.29.42,3.54l-.21.83.63,5v5.63c.42,1.67.62,3.33.42,5l-.62,2.5c-.21,2.08-1.25,3.96-2.5,5.42l-.21.42-2.71-.21-2.92.21c-1.04.21-2.5,0-3.54-.21l-.83-.21-3.75.42c-1.04.21-1.67.21-2.5,0l-.83-.21-4.59.42-1.88.21h-4.38c-.62,0-1.46-.21-2.08-.42l-1.04-.21-5.42-.21-2.92.42-5.63.21-5.63.21-2.92.83-1.04,1.67,2.29,1.88,3.96,3.96,2.08,1.04,4.38,1.25,2.08.21,2.71-.21h2.5l2.29-.21,2.5-.21,5-.21,5.63.21,5.42-1.25,2.92-1.04,2.92-.62c.83-.21,2.08-.42,2.92-.42l1.46.21c1.88,1.46,2.71,2.71,2.71,3.96v7.3l.21,4.79.21,5.21.21,2.08v4.38c0,.63-.21,1.04-.21,1.67l-.21,1.67v.21c-1.46,1.67-3.13,2.92-5,3.33l-4.59,2.08-2.08.62c-.21,0-.62.21-.83.21l-5.63,1.04-1.04.21c-.83.21-1.88.21-2.71.21l-6.25-.21-4.59.42h-1.88c-.63,0-1.46.21-2.08,0l-2.08-.42c-1.25.42-2.71.63-4.17.42l-1.04-.21-4.38-.63h-.42c-1.25,0-2.92-.21-4.17-.63l-2.29-.83-1.67-.21c-.83-.21-1.67-.21-2.5-.63l-2.92-1.46-2.5-.42-3.96-1.67-2.71-.21-2.08-.83c-1.46-.63-2.71-1.46-3.75-2.71l-.21-.21-4.59-3.13-3.33-2.71c-.63-.63-1.46-1.25-1.88-1.88l-.62-1.25-2.71-3.96-1.46-1.88-2.5-3.33c-.21-.42-.83-.83-1.04-1.46l-.63-1.46-.83-2.92c-.21-.63-.42-1.67-.42-2.29v-1.04l-1.25-5-.63-2.92-.62-3.96c0-.63-.21-1.04-.21-1.67v-1.88l.21-2.29.21-1.88.21-2.71.42-4.59.63-3.13.62-3.96c0-.62.21-1.25.42-2.08l.62-1.25,1.88-4.59,2.71-4.38.21-1.04c.42-1.04,1.04-1.88,1.67-2.71l2.08-2.5,1.88-2.08,3.13-3.33,1.88-1.67,3.13-2.71c.83-.83,1.67-1.25,2.5-1.67l1.04-.42,2.71-2.08c1.04-.83,2.29-1.04,3.75-1.46l3.54-.83.63-.42c1.04-.62,2.5-.62,3.54-.83l3.75-.42c1.25-.62,2.71-.83,4.38-.83h3.54l2.5-.83,2.5.21,2.71-.21,5.21.42,6.46,1.25Zm-7.3,34.81l-2.08-1.46-4.17-1.88-2.92-.21-2.08.63-4.79,2.29-2.29,5-.83,2.29,1.46,1.88h2.5l2.29.63,2.08-.21h2.92l4.38-.63,2.29-.62,2.5-2.5-1.25-5.21Z"/><path class="cls-4" d="m581.88,696.11l.63-5-.42-2.29-.21-2.5v-6.88l.42-4.38c0-.42.21-1.04.21-1.46l.42-1.88c1.04-1.88,2.29-2.71,3.96-2.92l4.38-.42,2.29-2.5.63-2.5.21-5,.42-2.5-.21-4.79v-.42c-.42-1.25-.63-2.29-.63-3.75v-3.13c.21-.62.42-1.46.83-2.29,1.46-2.71,3.96-3.75,5.84-3.75h.21l7.09-.63h1.88l3.54.42h.83c1.25-.21,2.5-.42,3.75-.21l3.13.62,3.13-.42,4.79.62c.62,0,1.25.21,1.88.42,2.71.83,3.75,2.92,4.38,4.79.21.63.21,1.46.21,2.08l.21,3.13.42,2.29-.21,3.54c0,.83,0,1.25-.21,1.88l-.21,1.88-.42,5.84.83,1.88,3.13,2.92h2.5l3.75-.42c1.25-.21,2.5,0,3.75.42l4.79.21.63.21c1.46.21,2.71.63,3.96,1.46l1.46.83-.21,2.29c0,.21-.21.42-.21.63v1.88l.21,4.17-.21,2.92.42,4.79.21,2.71v3.75c0,.83-.21,1.25-.42,2.08l-.42,1.88c-2.08,1.46-3.96,2.08-5.63,2.08l-4.79.62-2.71.83-2.92.21c-1.25.21-2.92,0-4.17-.42l-.63-.21-2.92,2.71-.21,2.5v5l.83,2.5v5.21l.21,2.71v4.79c.83,1.46,1.04,3.33,1.04,5l.83,2.29.42,2.29,3.75,2.29,2.29.63,3.13.62h.21c1.46,0,2.92.21,4.17.83l.42.21,5-1.46c1.88-.42,3.33,0,4.79,1.04v1.25c0,.62.21,1.04.21,1.67l.21,1.46v4.17c0,.83,0,1.25-.21,2.08l-.21,1.88.42,3.75v2.5l-.21,1.04.63,4.38c.21.83.42,2.08.21,2.92l-.21,1.04c-1.25,2.08-2.5,3.33-3.75,3.75-.62.42-1.04.21-1.67.42l-3.96.62-2.5.42-5.42,1.46-2.71.21-2.92.21c-1.25.21-2.71,0-3.75-.21h-2.71l-2.71-.21-2.08.21-4.79-.83h-1.46c-1.04,0-1.88-.21-2.92-.62l-2.5-1.04-2.08-.83-4.79-2.5-3.33-1.46c-1.25-.63-2.08-1.25-2.92-2.08l-.42-.63-3.13-3.75-.21-.42c-1.04-1.04-1.88-2.29-2.5-3.54l-1.04-2.29c-.21-.62-.42-1.25-.63-2.08l-.83-4.17-.63-2.71-.62-5.21-.21-2.5-.21-1.88v-2.08l.21-2.08-.21-5,.21-1.88.42-4.38v-3.33l.21-5.42-1.04-5.21-.63-4.38-2.5-1.88h-.83c-2.92-.21-5.21-.83-6.04-1.88s-1.46-2.29-1.67-3.75Z"/><path class="cls-4" d="m681.71,743.01l1.25-1.67c.42-.62.83-1.04,1.46-1.67l.83-.63,3.33-2.5c.42-.42,1.04-.63,1.67-1.04l1.04-.63,5-.21,2.71-.21h4.17c.63,0,1.25,0,1.88.21l3.54.83c.42.21,1.25.42,1.67.62l1.46.63,2.08,1.04c1.67.83,3.33,2.08,4.38,3.75l.21.42c.83,1.25,1.46,2.5,1.67,3.75v.21l1.04,4.59.21,1.46c0,.42.21,1.25.21,1.88l-.21,1.46.42,1.04c.21,1.04.21,1.88.21,2.71v.42l-1.04,4.59v.21c-.42,1.25-1.04,2.29-2.08,3.54l-1.88,2.08-1.04.83c-.42.42-.63.42-1.25.83l-2.71,1.67c-.63.42-1.04.62-1.46.83l-1.46.62-3.96,1.04h-.63c-.83.21-1.88.42-2.71.21l-1.04-.21h-2.5c-1.46.42-3.33.42-4.79,0l-1.67-.42-1.88-1.04c-.62-.42-1.04-.63-1.46-1.04l-2.5-1.88-1.67-1.46-1.67-1.88c-1.04-1.25-1.67-2.29-2.08-3.75l-.42-.63-.62-2.71c-.21-1.25-.21-2.08-.21-3.33v-.83l-.21-2.5.42-2.29v-.83c0-1.25,0-2.08.21-3.33l.21-.63c.21-1.46.83-2.71,1.88-4.17Z"/></g></svg>